# Blender v2.78 (sub 0) OBJ File: ''
# www.blender.org
mtllib Line_infantry_bullet.mtl
o {Bullet}_Sphere
v 0.000000 0.028802 -0.020926
v 0.000000 0.011001 -0.033859
v 0.000000 -0.011001 -0.033859
v 0.000000 -0.028802 -0.020926
v 0.019902 0.028802 -0.006466
v 0.032202 0.011001 -0.010463
v 0.032202 -0.011001 -0.010463
v 0.019902 -0.028802 -0.006466
v 0.012300 0.028802 0.016929
v 0.019902 0.011001 0.027392
v 0.019902 -0.011001 0.027392
v 0.012300 -0.028802 0.016929
v -0.000000 0.035601 0.000000
v -0.012300 0.028802 0.016929
v -0.019902 0.011001 0.027392
v -0.019902 -0.011001 0.027392
v -0.012300 -0.028802 0.016929
v 0.000000 -0.035601 0.000000
v -0.019902 0.028802 -0.006466
v -0.032202 0.011001 -0.010463
v -0.032202 -0.011001 -0.010463
v -0.019902 -0.028802 -0.006466
vn 0.5067 -0.5067 -0.6975
vn 0.5067 0.5067 -0.6975
vn 0.2191 -0.9280 -0.3015
vn 0.5878 -0.0000 -0.8090
vn 0.2191 0.9280 -0.3015
vn 0.9511 -0.0000 0.3090
vn 0.3544 0.9280 0.1152
vn 0.8199 -0.5067 0.2664
vn 0.8199 0.5067 0.2664
vn 0.3544 -0.9280 0.1152
vn 0.0000 0.0000 1.0000
vn 0.0000 0.9280 0.3727
vn 0.0000 -0.5067 0.8621
vn 0.0000 0.5067 0.8621
vn 0.0000 -0.9280 0.3727
vn -0.9511 0.0000 0.3090
vn -0.3544 0.9280 0.1152
vn -0.8199 -0.5067 0.2664
vn -0.8199 0.5067 0.2664
vn -0.3544 -0.9280 0.1152
vn -0.5878 0.0000 -0.8090
vn -0.2191 0.9280 -0.3015
vn -0.5067 -0.5067 -0.6975
vn -0.5067 0.5067 -0.6975
vn -0.2191 -0.9280 -0.3015
usemtl {Iron_material}
s off
f 3//1 8//1 4//1
f 2//2 5//2 6//2
f 18//3 4//3 8//3
f 2//4 7//4 3//4
f 1//5 13//5 5//5
f 6//6 11//6 7//6
f 5//7 13//7 9//7
f 7//8 12//8 8//8
f 5//9 10//9 6//9
f 18//10 8//10 12//10
f 10//11 16//11 11//11
f 9//12 13//12 14//12
f 11//13 17//13 12//13
f 9//14 15//14 10//14
f 18//15 12//15 17//15
f 15//16 21//16 16//16
f 14//17 13//17 19//17
f 16//18 22//18 17//18
f 14//19 20//19 15//19
f 18//20 17//20 22//20
f 20//21 3//21 21//21
f 19//22 13//22 1//22
f 21//23 4//23 22//23
f 19//24 2//24 20//24
f 18//25 22//25 4//25
f 3//1 7//1 8//1
f 2//2 1//2 5//2
f 2//4 6//4 7//4
f 6//6 10//6 11//6
f 7//8 11//8 12//8
f 5//9 9//9 10//9
f 10//11 15//11 16//11
f 11//13 16//13 17//13
f 9//14 14//14 15//14
f 15//16 20//16 21//16
f 16//18 21//18 22//18
f 14//19 19//19 20//19
f 20//21 2//21 3//21
f 21//23 3//23 4//23
f 19//24 1//24 2//24
