# Blender v2.78 (sub 0) OBJ File: ''
# www.blender.org
mtllib Card.mtl
o img_Plane.001
v -0.986954 0.061978 -1.763327
v 0.986954 0.061978 -1.763327
v 0.986954 0.061978 0.676704
v -0.986954 0.061978 0.676704
vt 1.0000 0.0000
vt 1.0000 1.0000
vt 0.0000 1.0000
vt 0.0000 0.0000
vn 0.0000 -1.0000 -0.0000
usemtl other
s 1
f 4/1/1 1/2/1 2/3/1 3/4/1
o base_Plane
v 0.928648 0.003757 2.009613
v -0.928648 0.003757 2.009613
v -0.928648 0.058219 2.009613
v 0.928648 0.058219 2.009613
v -0.871851 0.061187 1.624173
v -0.959376 0.061112 -1.714055
v 0.959376 0.061112 -1.714055
v 0.871851 0.061187 1.624173
v 1.279105 0.003758 -1.659155
v 1.279105 0.003757 1.659155
v 1.279105 0.058219 1.659155
v 1.279105 0.058220 -1.659155
v -0.928648 0.003758 -2.009613
v 0.928648 0.003758 -2.009613
v 0.928648 0.058220 -2.009613
v -0.928648 0.058220 -2.009613
v -0.959376 0.000866 1.714055
v 0.959376 0.000866 1.714055
v 0.959376 0.000866 -1.714055
v -0.959376 0.000866 -1.714055
v -1.279105 0.003757 1.659155
v -1.152174 0.005420 1.719352
v -1.123313 0.004518 1.721967
v -1.222281 0.002923 1.652632
v -1.033451 0.005420 1.838074
v -1.036068 0.004518 1.809212
v -0.924997 0.002923 1.949916
v -0.926329 0.002189 1.826596
v -1.036068 0.004039 1.721967
v -1.097913 0.002189 1.655012
v 1.033451 0.005420 1.838074
v 1.036068 0.004518 1.809212
v 0.924997 0.002923 1.949916
v 1.152174 0.005420 1.719352
v 1.123313 0.004518 1.721967
v 1.222281 0.002923 1.652632
v 1.097912 0.002189 1.655012
v 1.036068 0.004039 1.721967
v 0.926329 0.002189 1.826596
v -1.279105 0.003758 -1.659155
v -1.222281 0.002923 -1.652632
v -1.123313 0.004519 -1.721967
v -1.152174 0.005421 -1.719352
v -1.097912 0.002189 -1.655012
v -1.036068 0.004039 -1.721967
v -0.926329 0.002189 -1.826596
v -0.924997 0.002923 -1.949916
v -1.036068 0.004519 -1.809212
v -1.033451 0.005421 -1.838074
v 1.152174 0.005421 -1.719352
v 1.123313 0.004519 -1.721967
v 1.222281 0.002923 -1.652632
v 1.033451 0.005421 -1.838074
v 1.036068 0.004519 -1.809212
v 0.924997 0.002923 -1.949916
v 0.926329 0.002189 -1.826596
v 1.036068 0.004039 -1.721967
v 1.097913 0.002189 -1.655012
v -1.279105 0.058219 1.659155
v -1.222281 0.059055 1.652632
v -1.123313 0.057459 1.721967
v -1.152174 0.056556 1.719352
v -1.097913 0.059789 1.655012
v -1.036068 0.057939 1.721967
v -0.926329 0.059789 1.826596
v -0.924997 0.059055 1.949916
v -1.036068 0.057459 1.809212
v -1.033451 0.056556 1.838074
v 0.924997 0.059055 1.949915
v 1.036068 0.057459 1.809212
v 1.033451 0.056556 1.838074
v 0.926329 0.059789 1.826596
v 1.036068 0.057939 1.721967
v 1.097912 0.059789 1.655012
v 1.222282 0.059055 1.652632
v 1.123313 0.057459 1.721967
v 1.152174 0.056556 1.719352
v -1.279105 0.058220 -1.659155
v -1.152174 0.056557 -1.719352
v -1.123313 0.057460 -1.721967
v -1.222282 0.059055 -1.652632
v -1.033451 0.056557 -1.838074
v -1.036068 0.057460 -1.809212
v -0.924997 0.059055 -1.949915
v -0.926329 0.059789 -1.826596
v -1.036068 0.057939 -1.721967
v -1.097912 0.059789 -1.655012
v 1.222281 0.059055 -1.652632
v 1.123313 0.057460 -1.721967
v 1.152174 0.056557 -1.719352
v 1.097913 0.059789 -1.655012
v 1.036068 0.057939 -1.721967
v 0.926329 0.059789 -1.826596
v 0.924997 0.059055 -1.949916
v 1.036068 0.057460 -1.809212
v 1.033451 0.056557 -1.838074
v 0.986954 0.061978 0.676704
v -0.986954 0.061978 0.676704
v -0.959376 0.061112 1.714055
v 0.959376 0.061112 1.714055
v 0.894650 0.061903 0.766586
v -0.894650 0.061903 0.766586
vt 0.9691 0.9800
vt 0.9691 0.6703
vt 0.9794 0.6703
vt 0.9794 0.9800
vt 0.0827 0.8443
vt 0.0825 0.6450
vt 0.4020 0.6450
vt 0.4018 0.8443
vt 0.9794 0.7842
vt 0.9794 0.0512
vt 0.9897 0.0512
vt 0.9897 0.7842
vt 1.0000 0.1169
vt 1.0000 0.4266
vt 0.9897 0.4266
vt 0.9897 0.1169
vt 0.9027 0.8652
vt 0.5509 0.8652
vt 0.5509 0.0827
vt 0.9027 0.0827
vt 0.9691 0.8652
vt 0.9592 0.9058
vt 0.9534 0.9065
vt 0.9592 0.8652
vt 0.9353 0.9356
vt 0.9358 0.9284
vt 0.9027 0.9479
vt 0.9027 0.9356
vt 0.9027 0.9058
vt 0.9358 0.9065
vt 0.9353 0.8652
vt 0.5509 0.9479
vt 0.5183 0.9356
vt 0.5178 0.9284
vt 0.5509 0.9356
vt 0.4944 0.9058
vt 0.5002 0.9065
vt 0.4845 0.8652
vt 0.4944 0.8652
vt 0.5183 0.8652
vt 0.5178 0.9065
vt 0.5509 0.9058
vt 0.9691 0.0827
vt 0.9592 0.0827
vt 0.9534 0.0414
vt 0.9592 0.0421
vt 0.9353 0.0827
vt 0.9358 0.0414
vt 0.9027 0.0421
vt 0.9027 0.0123
vt 0.9358 0.0195
vt 0.9027 0.0000
vt 0.9353 0.0123
vt 0.4845 0.0827
vt 0.4944 0.0421
vt 0.5002 0.0414
vt 0.4944 0.0827
vt 0.5183 0.0123
vt 0.5178 0.0195
vt 0.5509 0.0000
vt 0.5509 0.0123
vt 0.5509 0.0421
vt 0.5178 0.0414
vt 0.5183 0.0827
vt 0.0000 0.8652
vt 0.0098 0.8652
vt 0.0157 0.9065
vt 0.0098 0.9058
vt 0.0338 0.8652
vt 0.0333 0.9065
vt 0.0664 0.8652
vt 0.0664 0.9058
vt 0.0664 0.9356
vt 0.0333 0.9284
vt 0.0664 0.9479
vt 0.0338 0.9356
vt 0.4182 0.9479
vt 0.4182 0.9356
vt 0.4513 0.9284
vt 0.4507 0.9356
vt 0.4182 0.9058
vt 0.4513 0.9065
vt 0.4182 0.8652
vt 0.4507 0.8652
vt 0.4747 0.8652
vt 0.4689 0.9065
vt 0.4845 0.8652
vt 0.4747 0.9058
vt 0.0000 0.0827
vt 0.0098 0.0421
vt 0.0157 0.0414
vt 0.0098 0.0827
vt 0.0338 0.0123
vt 0.0333 0.0195
vt 0.0664 0.0000
vt 0.0664 0.0123
vt 0.0664 0.0421
vt 0.0333 0.0414
vt 0.0664 0.0827
vt 0.0338 0.0827
vt 0.4845 0.0827
vt 0.4747 0.0827
vt 0.4689 0.0414
vt 0.4747 0.0421
vt 0.4507 0.0827
vt 0.4513 0.0414
vt 0.4182 0.0827
vt 0.4182 0.0421
vt 0.4182 0.0123
vt 0.4513 0.0195
vt 0.4182 0.0000
vt 0.4507 0.0123
vt 0.0664 0.6241
vt 0.4182 0.6241
vt 0.9897 0.8265
vt 0.9794 0.8265
vt 0.9897 0.8649
vt 0.9794 0.8649
vt 0.9897 0.8905
vt 0.9794 0.8905
vt 0.9897 0.0000
vt 1.0000 0.0000
vt 1.0000 0.0374
vt 0.9897 0.0374
vt 1.0000 0.0795
vt 0.9897 0.0795
vt 0.9691 0.5534
vt 0.9794 0.5534
vt 0.9794 0.5907
vt 0.9691 0.5907
vt 0.9794 0.6329
vt 0.9691 0.6329
vt 0.9794 0.0175
vt 0.9897 0.0175
vt 0.9794 0.0000
vt 0.9897 0.0000
vt 0.9794 1.0000
vt 0.9691 1.0000
vt 0.9691 0.0000
vt 0.9794 0.0000
vn 0.0000 0.0000 -1.0000
vn 0.0000 -1.0000 -0.0008
vn -1.0000 0.0000 0.0000
vn 0.0000 0.0000 1.0000
vn 0.0152 0.9998 -0.0159
vn -0.0152 0.9998 -0.0159
vn -0.0152 0.9998 0.0159
vn 0.0152 0.9998 0.0159
vn 0.0174 0.9997 -0.0187
vn 0.0177 0.9983 -0.0560
vn 0.0086 0.9998 -0.0176
vn 0.0343 0.9988 -0.0343
vn 0.0427 0.9989 -0.0191
vn 0.0043 1.0000 -0.0033
vn 0.0114 0.9999 -0.0103
vn 0.0234 0.9994 -0.0247
vn 0.0201 0.9998 -0.0043
vn 0.0092 0.9999 -0.0146
vn 0.0043 0.9996 -0.0279
vn -0.0155 0.9997 -0.0174
vn -0.0427 0.9989 -0.0191
vn -0.0120 0.9999 -0.0085
vn -0.0343 0.9988 -0.0343
vn -0.0177 0.9983 -0.0560
vn -0.0038 1.0000 -0.0052
vn -0.0092 0.9999 -0.0146
vn -0.0234 0.9994 -0.0247
vn -0.0043 0.9996 -0.0279
vn -0.0114 0.9999 -0.0103
vn -0.0201 0.9998 -0.0043
vn 0.0177 0.9983 0.0560
vn 0.0038 1.0000 0.0052
vn 0.0092 0.9999 0.0146
vn 0.0234 0.9994 0.0247
vn 0.0043 0.9996 0.0279
vn 0.0114 0.9999 0.0103
vn 0.0065 1.0000 0.0059
vn 0.0201 0.9998 0.0043
vn 0.0155 0.9997 0.0174
vn 0.0427 0.9989 0.0191
vn 0.0219 0.9996 0.0162
vn 0.0343 0.9988 0.0343
vn -0.0174 0.9997 0.0187
vn -0.0177 0.9983 0.0560
vn -0.0086 0.9998 0.0176
vn -0.0343 0.9988 0.0343
vn -0.0427 0.9989 0.0191
vn -0.0065 1.0000 0.0059
vn -0.0114 0.9999 0.0103
vn -0.0234 0.9994 0.0247
vn -0.0201 0.9998 0.0043
vn -0.0092 0.9999 0.0146
vn -0.0043 0.9996 0.0279
vn 0.0177 -0.9983 -0.0560
vn 0.0038 -1.0000 -0.0052
vn 0.0107 -0.9998 -0.0146
vn 0.0234 -0.9994 -0.0247
vn 0.0043 -0.9996 -0.0279
vn 0.0160 -0.9997 -0.0161
vn 0.0114 -0.9999 -0.0103
vn 0.0065 -1.0000 -0.0059
vn 0.0201 -0.9998 -0.0043
vn 0.0155 -0.9997 -0.0173
vn 0.0427 -0.9989 -0.0191
vn 0.0219 -0.9996 -0.0160
vn 0.0344 -0.9988 -0.0344
vn -0.0427 -0.9989 -0.0191
vn -0.0065 -1.0000 -0.0059
vn -0.0114 -0.9999 -0.0103
vn -0.0234 -0.9994 -0.0247
vn -0.0201 -0.9998 -0.0042
vn -0.0160 -0.9997 -0.0161
vn -0.0107 -0.9998 -0.0146
vn -0.0060 -0.9999 -0.0088
vn -0.0043 -0.9996 -0.0279
vn -0.0173 -0.9997 -0.0188
vn -0.0177 -0.9983 -0.0560
vn -0.0155 -0.9994 -0.0294
vn -0.0344 -0.9988 -0.0344
vn 0.0173 -0.9997 0.0188
vn 0.0177 -0.9983 0.0560
vn 0.0086 -0.9998 0.0177
vn 0.0344 -0.9988 0.0344
vn 0.0427 -0.9989 0.0191
vn 0.0065 -1.0000 0.0059
vn 0.0114 -0.9999 0.0103
vn 0.0234 -0.9994 0.0247
vn 0.0201 -0.9998 0.0042
vn 0.0215 -0.9995 0.0212
vn 0.0107 -0.9998 0.0146
vn 0.0043 -0.9996 0.0279
vn -0.0177 -0.9983 0.0560
vn -0.0060 -0.9999 0.0088
vn -0.0107 -0.9998 0.0146
vn -0.0234 -0.9994 0.0247
vn -0.0043 -0.9996 0.0279
vn -0.0215 -0.9995 0.0212
vn -0.0114 -0.9999 0.0103
vn -0.0065 -1.0000 0.0059
vn -0.0201 -0.9998 0.0043
vn -0.0155 -0.9997 0.0173
vn -0.0427 -0.9989 0.0191
vn -0.0219 -0.9996 0.0160
vn -0.0344 -0.9988 0.0344
vn 0.0147 0.9999 0.0000
vn 0.0000 0.9999 -0.0140
vn -0.0147 0.9999 0.0000
vn 0.0000 0.9999 0.0140
vn 0.0095 -1.0000 -0.0003
vn 0.0147 -0.9999 -0.0000
vn -0.0000 -0.9999 -0.0140
vn -0.0095 -1.0000 -0.0003
vn -0.0147 -0.9999 -0.0000
vn 0.0000 -0.9999 0.0140
vn -0.4285 0.0000 0.9035
vn -0.7071 0.0000 0.7071
vn -0.8533 0.0000 0.5214
vn 0.4285 0.0000 0.9035
vn 0.7071 0.0000 0.7071
vn 0.8533 0.0000 0.5214
vn 0.4285 0.0000 -0.9035
vn 0.7071 0.0000 -0.7071
vn 0.8533 0.0000 -0.5214
vn -0.4285 0.0000 -0.9035
vn -0.7071 0.0000 -0.7071
vn -0.8533 0.0000 -0.5214
vn 1.0000 0.0000 0.0000
usemtl base
s 1
f 5/5/2 6/6/2 7/7/2 8/8/2
f 9/9/3 106/10/3 105/11/3 12/12/3
f 13/13/4 14/14/4 15/15/4 16/16/4
f 17/17/5 18/18/5 19/19/5 20/20/5
f 21/21/6 22/22/7 23/23/8 24/24/9
f 25/25/10 26/26/11 27/27/11 28/28/12
f 26/26/13 29/29/13 30/30/13 27/27/13
f 6/31/14 31/32/14 30/30/14 29/29/14
f 31/32/15 32/33/16 33/34/17 30/30/18
f 21/21/6 34/35/19 33/34/17 32/33/16
f 34/35/19 28/28/12 27/27/20 33/34/17
f 27/27/20 30/30/18 33/34/17
f 5/36/21 35/37/22 36/38/22 37/39/23
f 35/37/24 38/40/24 39/41/24 36/38/24
f 14/42/25 40/43/25 39/41/25 38/40/25
f 40/43/26 41/44/27 42/45/28 39/41/29
f 22/22/7 43/46/30 42/45/28 41/44/27
f 43/46/30 37/39/23 36/38/31 42/45/28
f 36/38/31 39/41/29 42/45/28
f 44/47/32 45/48/32 46/49/32 47/50/32
f 45/48/33 48/51/34 49/52/35 46/49/36
f 24/24/9 50/53/37 49/52/35 48/51/34
f 50/53/37 51/54/38 52/55/39 49/52/35
f 17/56/40 53/57/41 52/55/41 51/54/42
f 53/57/43 47/50/43 46/49/43 52/55/43
f 46/49/36 49/52/35 52/55/39
f 13/58/44 54/59/45 55/60/45 56/61/46
f 54/59/47 57/62/47 58/63/47 55/60/47
f 18/64/48 59/65/48 58/63/48 57/62/48
f 59/65/49 60/66/50 61/67/51 58/63/52
f 23/23/8 62/68/53 61/67/51 60/66/50
f 62/68/53 56/61/46 55/60/54 61/67/51
f 55/60/54 58/63/52 61/67/51
f 63/69/55 64/70/55 65/71/55 66/72/55
f 64/70/56 67/73/57 68/74/58 65/71/59
f 103/75/60 69/76/61 68/74/58 67/73/57
f 69/76/61 70/77/62 71/78/63 68/74/58
f 7/79/64 72/80/65 71/78/65 70/77/66
f 72/80/67 66/72/67 65/71/67 71/78/67
f 65/71/59 68/74/58 71/78/63
f 8/81/68 73/82/68 74/83/68 75/84/68
f 73/82/69 76/85/70 77/86/71 74/83/72
f 104/87/73 78/88/74 77/86/71 76/85/70
f 78/88/74 79/89/75 80/90/76 77/86/71
f 15/91/77 81/92/78 80/90/78 79/89/79
f 81/92/80 75/84/80 74/83/80 80/90/80
f 74/83/72 77/86/71 80/90/76
f 82/93/81 83/94/82 84/95/82 85/96/83
f 83/94/84 86/97/84 87/98/84 84/95/84
f 20/99/85 88/100/85 87/98/85 86/97/85
f 88/100/86 89/101/87 90/102/88 87/98/89
f 10/103/90 91/104/91 90/102/88 89/101/87
f 91/104/91 85/96/83 84/95/92 90/102/88
f 84/95/92 87/98/89 90/102/88
f 16/105/93 92/106/93 93/107/93 94/108/93
f 92/106/94 95/109/95 96/110/96 93/107/97
f 11/111/98 97/112/99 96/110/96 95/109/95
f 97/112/99 98/113/100 99/114/101 96/110/96
f 19/115/102 100/116/103 99/114/103 98/113/104
f 100/116/105 94/108/105 93/107/105 99/114/105
f 93/107/97 96/110/96 99/114/101
f 44/47/106 25/25/10 28/28/12 45/48/33
f 45/48/33 28/28/12 34/35/19 48/51/34
f 48/51/34 34/35/19 21/21/6 24/24/9
f 6/31/107 5/36/21 37/39/23 31/32/15
f 31/32/15 37/39/23 43/46/30 32/33/16
f 32/33/16 43/46/30 22/22/7 21/21/6
f 14/42/108 13/58/44 56/61/46 40/43/26
f 40/43/26 56/61/46 62/68/53 41/44/27
f 41/44/27 62/68/53 23/23/8 22/22/7
f 18/64/109 17/56/40 51/54/42 59/65/109
f 59/65/49 51/54/38 50/53/37 60/66/50
f 60/66/50 50/53/37 24/24/9 23/23/8
f 10/103/90 102/117/110 103/75/60 67/73/57 91/104/91
f 91/104/91 67/73/57 64/70/56 85/96/83
f 85/96/83 64/70/56 63/69/111 82/93/81
f 103/75/60 104/87/73 76/85/70 69/76/61
f 69/76/61 76/85/70 73/82/69 70/77/62
f 70/77/66 73/82/112 8/81/112 7/79/64
f 104/87/73 101/118/113 11/111/98 95/109/95 78/88/74
f 78/88/74 95/109/95 92/106/94 79/89/75
f 79/89/79 92/106/114 16/105/114 15/91/77
f 11/111/98 10/103/90 89/101/87 97/112/99
f 97/112/99 89/101/87 88/100/86 98/113/100
f 98/113/104 88/100/115 20/99/115 19/115/102
f 13/13/116 16/16/116 94/119/116 54/120/116
f 54/120/117 94/119/117 100/121/117 57/122/117
f 57/122/118 100/121/118 19/123/118 18/124/118
f 82/125/119 44/126/119 47/127/119 83/128/119
f 83/128/120 47/127/120 53/129/120 86/130/120
f 86/130/121 53/129/121 17/17/121 20/20/121
f 25/131/122 63/132/122 66/133/122 26/134/122
f 26/134/123 66/133/123 72/135/123 29/136/123
f 29/136/124 72/135/124 7/7/124 6/6/124
f 15/15/125 14/14/125 38/137/125 81/138/125
f 81/138/126 38/137/126 35/139/126 75/140/126
f 75/141/127 35/142/127 5/5/127 8/8/127
f 25/131/128 44/143/128 82/144/128 63/132/128
f 9/9/3 12/12/3 104/87/73 103/75/60
f 12/12/3 105/11/3 101/118/113 104/87/73
f 106/10/3 9/9/3 103/75/60 102/117/110
f 105/11/3 106/10/3 102/117/110 101/118/113
