
mtllib Badge.mtl
o Circle
v 0.000000 0.780443 0.000000
v -0.284441 0.765447 0.000000
v -0.557950 0.721035 0.000000
v -0.810018 0.648914 0.000000
v -1.030958 0.551856 0.000000
v -1.212278 0.433591 0.000000
v -1.347011 0.298663 0.000000
v -1.429980 0.152257 0.000000
v -1.457995 0.000000 0.000000
v -1.429980 -0.152257 -0.000000
v -1.347011 -0.298662 -0.000000
v -1.212278 -0.433591 -0.000000
v -1.030958 -0.551856 -0.000000
v -0.810018 -0.648914 -0.000000
v -0.557950 -0.721035 -0.000000
v -0.284440 -0.765447 -0.000000
v 0.000001 -0.780443 -0.000000
v 0.284441 -0.765447 -0.000000
v 0.557951 -0.721035 -0.000000
v 0.810019 -0.648914 -0.000000
v 1.030959 -0.551856 -0.000000
v 1.212279 -0.433590 -0.000000
v 1.347012 -0.298662 -0.000000
v 1.429980 -0.152256 -0.000000
v 1.457995 0.000001 0.000000
v 1.429979 0.152258 0.000000
v 1.347011 0.298663 0.000000
v 1.212277 0.433592 0.000000
v 1.030957 0.551857 0.000000
v 0.810017 0.648915 0.000000
v 0.557948 0.721035 0.000000
v 0.284438 0.765447 0.000000
vt 0.5000 0.0000
vt 0.5975 0.9904
vt 0.5000 1.0000
vt 0.4025 0.9904
vt 0.4025 0.0096
vt 0.3087 0.9619
vt 0.2222 0.9157
vt 0.2222 0.0843
vt 0.1464 0.8536
vt 0.0843 0.7778
vt 0.1464 0.1464
vt 0.0381 0.6913
vt 0.0096 0.5975
vt 0.0096 0.4025
vt 0.0000 0.5000
vt 0.0381 0.3087
vt 0.0843 0.2222
vt 0.3087 0.0381
vt 0.5975 0.0096
vt 0.6913 0.0381
vt 0.7778 0.0843
vt 0.7778 0.9157
vt 0.8536 0.1464
vt 0.9157 0.2222
vt 0.9157 0.7778
vt 0.9619 0.3087
vt 0.9904 0.4025
vt 0.9904 0.5975
vt 1.0000 0.5000
vt 0.9619 0.6913
vt 0.8536 0.8536
vt 0.6913 0.9619
vn -0.0000 -0.0000 1.0000
usemtl {Base}
s off
f 17/1/1 32/2/1 1/3/1
f 1/3/1 2/4/1 16/5/1
f 3/6/1 4/7/1 14/8/1
f 5/9/1 6/10/1 13/11/1
f 7/12/1 8/13/1 10/14/1
f 9/15/1 10/14/1 8/13/1
f 11/16/1 12/17/1 7/12/1
f 13/11/1 14/8/1 4/7/1
f 15/18/1 16/5/1 2/4/1
f 17/1/1 18/19/1 32/2/1
f 19/20/1 20/21/1 30/22/1
f 21/23/1 22/24/1 28/25/1
f 23/26/1 24/27/1 26/28/1
f 25/29/1 26/28/1 24/27/1
f 27/30/1 28/25/1 22/24/1
f 29/31/1 30/22/1 20/21/1
f 31/32/1 32/2/1 18/19/1
f 2/4/1 3/6/1 15/18/1
f 6/10/1 12/17/1 13/11/1
f 10/14/1 11/16/1 7/12/1
f 14/8/1 15/18/1 3/6/1
f 18/19/1 19/20/1 31/32/1
f 22/24/1 23/26/1 27/30/1
f 26/28/1 27/30/1 23/26/1
f 30/22/1 31/32/1 19/20/1
f 4/7/1 5/9/1 13/11/1
f 12/17/1 6/10/1 7/12/1
f 20/21/1 21/23/1 29/31/1
f 28/25/1 29/31/1 21/23/1
f 1/3/1 16/5/1 17/1/1
