# Blender v2.78 (sub 0) OBJ File: ''
# www.blender.org
mtllib Particle.mtl
o Circle
v 0.000000 1.000000 0.000000
v -0.195090 0.980785 0.000000
v -0.382683 0.923880 0.000000
v -0.555570 0.831470 0.000000
v -0.707107 0.707107 0.000000
v -0.831470 0.555570 0.000000
v -0.923880 0.382683 0.000000
v -0.980785 0.195090 0.000000
v -1.000000 0.000000 0.000000
v -0.980785 -0.195090 -0.000000
v -0.923880 -0.382683 -0.000000
v -0.831470 -0.555570 -0.000000
v -0.707107 -0.707107 -0.000000
v -0.555570 -0.831470 -0.000000
v -0.382683 -0.923880 -0.000000
v -0.195090 -0.980785 -0.000000
v 0.000000 -1.000000 -0.000000
v 0.195091 -0.980785 -0.000000
v 0.382684 -0.923879 -0.000000
v 0.555571 -0.831469 -0.000000
v 0.707107 -0.707106 -0.000000
v 0.831470 -0.555570 -0.000000
v 0.923880 -0.382683 -0.000000
v 0.980785 -0.195089 -0.000000
v 1.000000 0.000001 0.000000
v 0.980785 0.195091 0.000000
v 0.923879 0.382684 0.000000
v 0.831469 0.555571 0.000000
v 0.707106 0.707108 0.000000
v 0.555569 0.831470 0.000000
v 0.382682 0.923880 0.000000
v 0.195089 0.980786 0.000000
vt 0.6458 0.9808
vt 0.5492 1.0000
vt 0.4508 1.0000
vt 0.3542 0.9808
vt 0.2632 0.9431
vt 0.1813 0.8884
vt 0.1116 0.8187
vt 0.0569 0.7368
vt 0.0192 0.6458
vt 0.0000 0.5492
vt 0.0000 0.4508
vt 0.0192 0.3542
vt 0.0569 0.2632
vt 0.1116 0.1813
vt 0.1813 0.1116
vt 0.2632 0.0569
vt 0.3542 0.0192
vt 0.4508 0.0000
vt 0.5492 0.0000
vt 0.6458 0.0192
vt 0.7368 0.0569
vt 0.8187 0.1116
vt 0.8884 0.1813
vt 0.9431 0.2632
vt 0.9808 0.3542
vt 1.0000 0.4508
vt 1.0000 0.5492
vt 0.9808 0.6458
vt 0.9431 0.7368
vt 0.8884 0.8187
vt 0.8187 0.8884
vt 0.7368 0.9431
vn -0.0000 -0.0000 1.0000
usemtl Material
s off
f 2/1/1 3/2/1 4/3/1 5/4/1 6/5/1 7/6/1 8/7/1 9/8/1 10/9/1 11/10/1 12/11/1 13/12/1 14/13/1 15/14/1 16/15/1 17/16/1 18/17/1 19/18/1 20/19/1 21/20/1 22/21/1 23/22/1 24/23/1 25/24/1 26/25/1 27/26/1 28/27/1 29/28/1 30/29/1 31/30/1 32/31/1 1/32/1
